<svg width="30" height="30" viewBox="0 0 30 30" fill="none" xmlns="http://www.w3.org/2000/svg">
<ellipse cx="14.905" cy="14.6739" rx="14.905" ry="14.6739" fill="#BF83FF"/>
<path d="M13.4143 15.408C16.2953 15.408 18.6309 17.05 18.6311 19.0759C18.6311 19.8863 17.9737 20.5437 17.1633 20.5437H9.66528C8.85487 20.5437 8.19751 19.8863 8.19751 19.0759C8.19771 17.05 10.5333 15.408 13.4143 15.408ZM13.4143 8.80444C15.0606 8.80447 16.3947 10.1183 16.3948 11.739C16.3948 13.3598 15.0606 14.6736 13.4143 14.6736C11.7679 14.6736 10.4329 13.3598 10.4329 11.739C10.433 10.1183 11.768 8.80444 13.4143 8.80444ZM19.3762 10.2722C19.7878 10.2722 20.1213 10.6004 20.1213 11.0056V11.739H20.8665C21.2779 11.739 21.6114 12.0674 21.6116 12.4724C21.6116 12.8776 21.278 13.2068 20.8665 13.2068H20.1213V13.9402C20.1213 14.3454 19.7878 14.6736 19.3762 14.6736C18.9646 14.6736 18.6311 14.3454 18.6311 13.9402V13.2068H17.886C17.4744 13.2068 17.1409 12.8776 17.1409 12.4724C17.1411 12.0674 17.4745 11.739 17.886 11.739H18.6311V11.0056C18.6311 10.6004 18.9646 10.2722 19.3762 10.2722Z" fill="white"/>
</svg>
