<svg width="30" height="30" viewBox="0 0 30 30" fill="none" xmlns="http://www.w3.org/2000/svg">
<ellipse cx="14.905" cy="14.6739" rx="14.905" ry="14.6739" fill="#FA5A7D"/>
<path fill-rule="evenodd" clip-rule="evenodd" d="M9.68764 8.0708C8.86446 8.0708 8.19714 8.72779 8.19714 9.53819V19.8099C8.19714 20.6203 8.86446 21.2773 9.68764 21.2773H20.1211C20.9443 21.2773 21.6116 20.6203 21.6116 19.8099V9.53819C21.6116 8.72779 20.9443 8.0708 20.1211 8.0708H9.68764ZM11.9234 15.4078C11.9234 15.0025 11.5897 14.6741 11.1781 14.6741C10.7666 14.6741 10.4329 15.0025 10.4329 15.4078V18.3425C10.4329 18.7478 10.7666 19.0762 11.1781 19.0762C11.5897 19.0762 11.9234 18.7478 11.9234 18.3425V15.4078ZM14.9044 12.473C15.316 12.473 15.6496 12.8014 15.6496 13.2067V18.3425C15.6496 18.7478 15.316 19.0762 14.9044 19.0762C14.4928 19.0762 14.1591 18.7478 14.1591 18.3425V13.2067C14.1591 12.8014 14.4928 12.473 14.9044 12.473ZM19.3759 11.0056C19.3759 10.6004 19.0422 10.2719 18.6306 10.2719C18.219 10.2719 17.8854 10.6004 17.8854 11.0056V18.3425C17.8854 18.7478 18.219 19.0762 18.6306 19.0762C19.0422 19.0762 19.3759 18.7478 19.3759 18.3425V11.0056Z" fill="white"/>
</svg>
