<svg width="30" height="30" viewBox="0 0 30 30" fill="none" xmlns="http://www.w3.org/2000/svg">
<ellipse cx="14.905" cy="14.6739" rx="14.905" ry="14.6739" fill="#FF947A"/>
<path fill-rule="evenodd" clip-rule="evenodd" d="M8.94275 10.2719C8.94275 8.65111 10.2774 7.33716 11.9237 7.33716H16.3952V10.2719C16.3952 11.8928 17.7299 13.2067 19.3762 13.2067H20.8667V19.0763C20.8667 20.6971 19.5321 22.0111 17.8857 22.0111H11.9237C10.2774 22.0111 8.94275 20.6971 8.94275 19.0763V10.2719ZM11.9237 13.9404C11.5122 13.9404 11.1785 14.2689 11.1785 14.6741C11.1785 15.0793 11.5122 15.4078 11.9237 15.4078H13.4142C13.8258 15.4078 14.1595 15.0793 14.1595 14.6741C14.1595 14.2689 13.8258 13.9404 13.4142 13.9404H11.9237ZM11.9237 16.8752C11.5122 16.8752 11.1785 17.2037 11.1785 17.6089C11.1785 18.0141 11.5122 18.3426 11.9237 18.3426H14.9047C15.3163 18.3426 15.65 18.0141 15.65 17.6089C15.65 17.2037 15.3163 16.8752 14.9047 16.8752H11.9237ZM18.3939 8.9504L18.2963 10.3914C18.2663 10.8344 18.6395 11.2018 19.0894 11.1723L20.5532 11.0762C21.1921 11.0343 21.4833 10.2711 21.0306 9.82538L19.6644 8.4804C19.2117 8.03467 18.4364 8.32144 18.3939 8.9504Z" fill="white"/>
</svg>
