<svg width="30" height="30" viewBox="0 0 30 30" fill="none" xmlns="http://www.w3.org/2000/svg">
<ellipse cx="14.905" cy="14.6739" rx="14.905" ry="14.6739" fill="#3CD856"/>
<path fill-rule="evenodd" clip-rule="evenodd" d="M18.3533 9.73286L15.8941 10.0787C15.5184 10.1316 15.2114 10.3079 14.9922 10.5515L9.2542 16.2006C8.67213 16.7736 8.6721 17.7027 9.2542 18.2758L11.3621 20.351C11.9442 20.9241 12.8879 20.924 13.47 20.351L19.208 14.7019C19.4555 14.4861 19.6345 14.1839 19.6882 13.8141L20.0395 11.393C20.1801 10.4246 19.3369 9.59447 18.3533 9.73286ZM16.6318 13.0878C16.9228 13.3743 17.3947 13.3743 17.6857 13.0878C17.9768 12.8012 17.9768 12.3367 17.6857 12.0502C17.3947 11.7637 16.9228 11.7636 16.6318 12.0502C16.3408 12.3367 16.3408 12.8013 16.6318 13.0878Z" fill="white"/>
</svg>
