<svg width="38" height="34" viewBox="0 0 38 34" fill="none" xmlns="http://www.w3.org/2000/svg">
<ellipse cx="19" cy="16.7481" rx="19" ry="16.7481" fill="#3CD856"/>
<path d="M19.4651 25.5238C24.875 25.5238 29.2606 21.5372 29.2606 16.6194C29.2606 11.7017 24.875 7.71509 19.4651 7.71509C14.0553 7.71509 9.66968 11.7017 9.66968 16.6194C9.66968 21.5372 14.0553 25.5238 19.4651 25.5238Z" fill="white"/>
<path fill-rule="evenodd" clip-rule="evenodd" d="M24.458 12.8568C24.8558 13.1367 24.9717 13.6722 24.7188 14.0849C22.7565 17.287 20.9709 19.4175 19.9158 20.5579C19.3483 21.1713 18.4357 21.25 17.7922 20.7148C16.8735 19.9507 15.5232 18.6535 14.2311 16.764C13.9876 16.4079 14.0403 15.9331 14.3438 15.6252L15.1218 14.8358C15.4841 14.4683 16.0795 14.4582 16.4448 14.8227C17.7313 16.1064 18.7292 17.2705 18.7292 17.2705C18.7292 17.2705 20.1954 15.1082 22.4722 12.4866C22.7869 12.1243 23.3298 12.063 23.7235 12.34L24.458 12.8568Z" fill="#3CD856"/>
</svg>
