<svg width="38" height="34" viewBox="0 0 38 34" fill="none" xmlns="http://www.w3.org/2000/svg">
<ellipse cx="19" cy="16.7481" rx="19" ry="16.7481" fill="#FF947A"/>
<path d="M18.8765 27.3082C18.8765 27.3082 28.4537 19.6859 28.4537 13.9692C28.4537 9.23335 24.1658 5.39417 18.8765 5.39417C13.5872 5.39417 9.29932 9.23335 9.29932 13.9692C9.29932 19.6859 18.8765 27.3082 18.8765 27.3082Z" fill="#FF947A"/>
<path d="M21.9363 13.6121C21.9363 15.1249 20.5665 16.3513 18.8769 16.3513C17.1872 16.3513 15.8175 15.1249 15.8175 13.6121C15.8175 12.0992 17.1872 10.8728 18.8769 10.8728C20.5665 10.8728 21.9363 12.0992 21.9363 13.6121Z" fill="#FF947A"/>
<path d="M18.8765 27.3082C18.8765 27.3082 28.4537 19.6859 28.4537 13.9692C28.4537 9.23335 24.1658 5.39417 18.8765 5.39417C13.5872 5.39417 9.29932 9.23335 9.29932 13.9692C9.29932 19.6859 18.8765 27.3082 18.8765 27.3082Z" stroke="white" stroke-width="2"/>
<path d="M21.9363 13.6121C21.9363 15.1249 20.5665 16.3513 18.8769 16.3513C17.1872 16.3513 15.8175 15.1249 15.8175 13.6121C15.8175 12.0992 17.1872 10.8728 18.8769 10.8728C20.5665 10.8728 21.9363 12.0992 21.9363 13.6121Z" stroke="white" stroke-width="2"/>
</svg>
