<svg width="38" height="34" viewBox="0 0 38 34" fill="none" xmlns="http://www.w3.org/2000/svg">
<ellipse cx="19" cy="16.7481" rx="19" ry="16.7481" fill="#BF83FF"/>
<path d="M10.3197 24.2064C8.84525 24.0837 7.8962 23.0053 8.362 21.7899C8.91985 20.3343 10.0049 18.0502 12.1152 14.672C14.3874 11.0347 16.2633 8.66585 17.5358 7.23374C18.4975 6.15142 20.2113 6.15142 21.173 7.23374C22.4455 8.66585 24.3214 11.0347 26.5936 14.672C28.704 18.0502 29.789 20.3343 30.3468 21.7899C30.8126 23.0053 29.8636 24.0837 28.3891 24.2064C26.3988 24.372 23.3086 24.5545 19.3544 24.5545C15.4002 24.5545 12.31 24.372 10.3197 24.2064Z" fill="white"/>
<path d="M18.2327 10.867C17.6259 11.015 17.3553 11.5471 17.3967 12.0853C17.4921 13.3263 17.6848 15.616 17.8925 16.8452C17.9539 17.2088 18.2007 17.5263 18.6231 17.5944C18.8132 17.6251 19.054 17.6469 19.3543 17.6469C19.6546 17.6469 19.8955 17.6251 20.0856 17.5944C20.508 17.5263 20.7547 17.2088 20.8161 16.8452C21.0239 15.616 21.2166 13.3263 21.312 12.0853C21.3534 11.5471 21.0828 11.015 20.476 10.867C20.1768 10.794 19.8029 10.7393 19.3543 10.7393C18.9058 10.7393 18.5319 10.794 18.2327 10.867Z" fill="#B899EB"/>
<path d="M19.3543 22.3958C20.4701 22.3958 21.3746 21.6226 21.3746 20.6689C21.3746 19.7152 20.4701 18.942 19.3543 18.942C18.2385 18.942 17.334 19.7152 17.334 20.6689C17.334 21.6226 18.2385 22.3958 19.3543 22.3958Z" fill="#B899EB"/>
</svg>
