<svg width="38" height="34" viewBox="0 0 38 34" fill="none" xmlns="http://www.w3.org/2000/svg">
<ellipse cx="19" cy="16.7481" rx="19" ry="16.7481" fill="#FA5A7D"/>
<path d="M19.4576 28.842C11.9903 28.842 5.93685 23.422 5.93685 16.7361C5.93685 10.0501 11.9903 4.63013 19.4576 4.63013C26.9248 4.63013 32.9783 10.0501 32.9783 16.7361C32.9783 23.422 26.9248 28.842 19.4576 28.842Z" fill="white"/>
<path d="M26.3663 18.4555C27.1238 17.3397 27.3703 15.9574 27.0408 14.6721C26.3368 11.7442 22.4384 10.5478 20.0101 12.5099C19.8179 12.6643 19.6468 12.8422 19.4576 13.0196C19.2684 12.8422 19.0973 12.6643 18.905 12.5099C16.4767 10.5478 12.5784 11.7442 11.8744 14.6721C11.5449 15.9574 11.7913 17.3397 12.5489 18.4555C13.8388 20.3584 15.8974 21.8515 17.9284 23.202C18.8342 23.8043 20.0809 23.8043 20.9868 23.202C23.0178 21.8515 25.0763 20.3584 26.3663 18.4555Z" fill="#DC1200"/>
</svg>
