<svg viewBox="0 0 132.0318 131" fill="none" xmlns="http://www.w3.org/2000/svg" xmlns:xlink="http://www.w3.org/1999/xlink" id="bee3fc11" x="0" y="0"><g id="Dashboard" data-node-id="1:3"><g id="Group 19" data-node-id="1:4"><g id="01-Dashboard-Default" data-node-id="1:6"><g id="Group 5_2" data-node-id="1:47"><g id="Group 18" data-node-id="1:66"><ellipse id="Ellipse 13" data-node-id="1:67" cx="66.01589999999999" cy="65.5" rx="65.5159" ry="65" fill="#F3F3F9"/><path id="Ellipse 9" data-node-id="1:68" d="M65.5119,17.5c27.075,0 48.936,21.763 48.936,48.5c0,26.737 -21.861,48.5 -48.936,48.5c-27.076,0 -48.937,-21.763 -48.937,-48.5c0,-26.737 21.861,-48.5 48.937,-48.5z" stroke="#4CD7F6" stroke-width="13"/><ellipse id="Ellipse 11" data-node-id="1:69" cx="68.03190000000006" cy="17.5" rx="2.01587" ry="2" fill="#F6F6FB"/><ellipse id="Ellipse 12" data-node-id="1:70" cx="70.04690000000005" cy="114.5" rx="2.01587" ry="2" fill="#F6F6FB"/><path id="Ellipse 10" data-node-id="1:71" d="M68.5359,114.5c-26.207,0 -49.389,-14 -51.909,-47c0,-30.376 20.284,-50 50.901,-50" stroke="#E17CFD" stroke-width="13" stroke-linecap="round"/><ellipse id="Ellipse 14" data-node-id="1:72" cx="68.03190000000006" cy="17.5" rx="2.01587" ry="2" fill="#F6F6FB"/><ellipse id="Ellipse 16" data-node-id="1:73" cx="68.03190000000006" cy="114.5" rx="2.01587" ry="2" fill="#F6F6FB"/></g></g></g></g></g><defs/></svg>