<svg viewBox="0 0 242 191" fill="none" xmlns="http://www.w3.org/2000/svg" xmlns:xlink="http://www.w3.org/1999/xlink" id="c175055" x="0" y="0"><g id="Dashboard" data-node-id="1:3"><g id="Group 19" data-node-id="1:4"><g id="01-Dashboard-Default" data-node-id="1:6"><g id="Group 4" data-node-id="1:586"><g id="Group 7" data-node-id="1:633"><g id="Mask Group" data-node-id="1:635">
<mask id="mask1_1_3" style="mask-type:alpha" maskUnits="userSpaceOnUse" x="0" y="0" width="242" height="191">
<rect id="Rectangle 13_2" data-node-id="1:636" x="0.01799999999997226" y="0" width="241.896" height="190.519" rx="32" fill="#4CD7F6"/>
</mask>
<g mask="url(#mask1_1_3)">
<g id="Ellipse 6" data-node-id="1:637" opacity="0.9" filter="url(#filter3_f_1_3)">
<ellipse cx="198.07100000000003" cy="141.401" rx="104.318" ry="95.7555" fill="#E17CFD"/>
</g>
<g id="Ellipse 7" data-node-id="1:638" opacity="0.9" filter="url(#filter4_f_1_3)">
<ellipse cx="27.230999999999995" cy="30.760999999999996" rx="60.474" ry="59.5371" fill="#E17CFD"/>
</g>
</g>
</g><path id="Polygon 2_5" data-node-id="1:639" d="M172.311,43.019c-0.401,-0.392 -1.046,-0.378 -1.43,0.032l-3.992,4.267c-0.598,0.639 -0.146,1.683 0.729,1.683h8.348c0.896,0 1.34,-1.088 0.7,-1.715z" fill="#14ED44"/><path id="Vector_300" data-node-id="1:640" d="M186.48,159.598c0,5.196 -4.513,9.407 -10.079,9.407c-5.566,0 -10.079,-4.211 -10.079,-9.407c0,-5.193 4.513,-9.407 10.079,-9.407c5.566,0 10.079,4.214 10.079,9.407zM176.671,153.301c-2.215,0 -3.627,0.871 -4.737,2.419c-0.143,0.2 -0.095,0.471 0.111,0.616l1.41,0.998c0.212,0.15 0.513,0.115 0.677,-0.08c0.726,-0.86 1.224,-1.358 2.329,-1.358c0.83,0 1.857,0.499 1.857,1.25c0,0.568 -0.502,0.86 -1.322,1.289c-0.956,0.5 -2.221,1.123 -2.221,2.68v0.152c0,0.251 0.218,0.455 0.488,0.455h2.276c0.269,0 0.487,-0.204 0.487,-0.455v-0.051c0,-1.079 3.381,-1.124 3.381,-4.046c0,-2.2 -2.445,-3.869 -4.736,-3.869zM176.401,162.708c-1.031,0 -1.87,0.783 -1.87,1.745c0,0.962 0.839,1.745 1.87,1.745c1.031,0 1.869,-0.783 1.869,-1.745c0,-0.962 -0.838,-1.745 -1.869,-1.745z" fill="#F6F6FB"/><ellipse id="Ellipse 5" data-node-id="1:641" opacity="0.02" cx="176.401" cy="141.897" rx="16.1264" ry="15.8766" fill="#7166F9"/><path id="Vector_301" data-node-id="1:643" d="M61.72,53.093c3.818,0 6.911,-2.778 6.911,-6.206c0,-3.429 -3.093,-6.207 -6.911,-6.207c-3.817,0 -6.911,2.778 -6.911,6.207c0,3.428 3.094,6.206 6.911,6.206zM66.558,54.645h-0.902c-1.198,0.494 -2.532,0.776 -3.936,0.776c-1.404,0 -2.732,-0.282 -3.936,-0.776h-0.902c-4.006,0 -7.257,2.919 -7.257,6.517v2.017c0,1.285 1.161,2.327 2.592,2.327h19.006c1.431,0 2.592,-1.042 2.592,-2.327v-2.017c0,-3.598 -3.25,-6.517 -7.257,-6.517z" fill="#7166F9"/></g></g></g></g></g><defs><mask id="mask1_1_3" style="mask-type:alpha" maskUnits="userSpaceOnUse" x="330" y="190" width="242" height="191">
<rect id="Rectangle 13_2" data-node-id="1:636" x="330.018" y="190" width="241.896" height="190.519" rx="32" fill="#4CD7F6"/>
</mask><filter id="filter3_f_1_3" x="-5.247000000000014" y="-53.35499999999999" width="406.635" height="389.511" filterUnits="userSpaceOnUse" color-interpolation-filters="sRGB">
<feFlood flood-opacity="0" result="BackgroundImageFix"/>
<feBlend mode="normal" in="SourceGraphic" in2="BackgroundImageFix" result="shape"/>
<feGaussianBlur stdDeviation="49.5" result="effect1_foregroundBlur_1_3"/>
</filter><filter id="filter4_f_1_3" x="-105.243" y="-100.7763" width="264.948" height="263.074" filterUnits="userSpaceOnUse" color-interpolation-filters="sRGB">
<feFlood flood-opacity="0" result="BackgroundImageFix"/>
<feBlend mode="normal" in="SourceGraphic" in2="BackgroundImageFix" result="shape"/>
<feGaussianBlur stdDeviation="36" result="effect1_foregroundBlur_1_3"/>
</filter></defs></svg>