<svg width="32" height="32" viewBox="0 0 32 32" fill="none" xmlns="http://www.w3.org/2000/svg">
<path d="M2.66666 9.2145L14.5163 6.6958C14.8622 6.62228 15.2232 6.68917 15.5197 6.88176L20.919 10.3881C21.2156 10.5807 21.5765 10.6476 21.9224 10.5741L24.6427 9.99583C25.363 9.84276 26.071 10.3026 26.2241 11.0228L26.6399 12.9792C26.793 13.6994 26.3332 14.4074 25.6129 14.5606L20.9364 15.5546C20.5904 15.6281 20.2295 15.5612 19.933 15.3686L14.5337 11.8623C14.2371 11.6697 13.8762 11.6028 13.5303 11.6763L11.462 12.1159" stroke="white" stroke-width="2.5" stroke-linecap="round"/>
<path d="M28.7188 22.7605L16.8691 25.2792C16.5232 25.3527 16.1622 25.2858 15.8657 25.0932L10.4664 21.5869C10.1698 21.3943 9.80891 21.3274 9.46305 21.4009L6.74271 21.9791C6.02245 22.1322 5.31443 21.6724 5.16132 20.9521L4.7455 18.9959C4.5924 18.2755 5.0522 17.5675 5.77249 17.4144L10.449 16.4204C10.795 16.3469 11.1559 16.4137 11.4524 16.6063L16.8517 20.1127C17.1483 20.3053 17.5092 20.3722 17.8551 20.2987L19.9234 19.8591" stroke="white" stroke-width="2.5" stroke-linecap="round"/>
</svg>
