<svg width="25" height="25" viewBox="0 0 25 25" fill="none" xmlns="http://www.w3.org/2000/svg">
<path d="M12.0948 12.4132C15.9122 12.4132 19.0061 9.63476 19.0061 6.20659C19.0061 2.77842 15.9122 0 12.0948 0C8.27739 0 5.18349 2.77842 5.18349 6.20659C5.18349 9.63476 8.27739 12.4132 12.0948 12.4132ZM16.9327 13.9648H16.031C14.8323 14.4594 13.4987 14.7407 12.0948 14.7407C10.6909 14.7407 9.36268 14.4594 8.1586 13.9648H7.25689C3.25048 13.9648 0 16.8839 0 20.4817V22.4989C0 23.7838 1.16089 24.8264 2.59174 24.8264H21.5979C23.0287 24.8264 24.1896 23.7838 24.1896 22.4989V20.4817C24.1896 16.8839 20.9391 13.9648 16.9327 13.9648Z" fill="#7166F9"/>
</svg>
