<svg width="21" height="19" viewBox="0 0 21 19" fill="none" xmlns="http://www.w3.org/2000/svg">
<path d="M20.158 9.40686C20.158 14.6033 15.6451 18.8137 10.079 18.8137C4.51292 18.8137 0 14.6033 0 9.40686C0 4.21348 4.51292 0 10.079 0C15.6451 0 20.158 4.21348 20.158 9.40686ZM10.3495 3.11033C8.13465 3.11033 6.72205 3.98111 5.61279 5.52873C5.46908 5.72923 5.51716 5.99964 5.72313 6.14541L7.13334 7.14337C7.34487 7.29309 7.64627 7.25747 7.81062 7.06288C8.53664 6.20345 9.03445 5.70507 10.1395 5.70507C10.9697 5.70507 11.9967 6.20379 11.9967 6.9552C11.9967 7.52325 11.4943 7.81498 10.6745 8.24394C9.71844 8.74413 8.45336 9.36669 8.45336 10.9241V11.0758C8.45336 11.3272 8.67173 11.531 8.94106 11.531H11.217C11.4863 11.531 11.7047 11.3272 11.7047 11.0758V11.0253C11.7047 9.94567 15.0854 9.90072 15.0854 6.97929C15.0854 4.77922 12.6403 3.11033 10.3495 3.11033ZM10.079 12.5172C9.04815 12.5172 8.20951 13.2999 8.20951 14.262C8.20951 15.2241 9.04815 16.0068 10.079 16.0068C11.1099 16.0068 11.9485 15.2241 11.9485 14.262C11.9485 13.2999 11.1099 12.5172 10.079 12.5172Z" fill="#F6F6FB"/>
</svg>
