<svg viewBox="0 0 358.6095 84.6657" fill="none" xmlns="http://www.w3.org/2000/svg" xmlns:xlink="http://www.w3.org/1999/xlink" id="33814d5c" x="0" y="0"><g id="Dashboard" data-node-id="1:3"><g id="Group 19" data-node-id="1:4"><g id="01-Dashboard-Default" data-node-id="1:6"><g id="Group 3_2" data-node-id="1:556"><path id="Vector 2" data-node-id="1:578" d="M0.7994,60.626c14.089,8.874 46.727,45.947 73.357,0c37.74,-95.536 69.34,-29.671 69.34,-29.671c0,0 38.18,73.654 67.32,29.671c51.32,-103.106 56.65,-18.794 76.27,0c32.21,39.154 70.45,0 70.45,0" stroke="url(#paint1_linear_1_3)" stroke-width="3"/><path id="Ellipse 8" data-node-id="1:579" d="M289.3764,55.5c3.38,0 6.04,2.665 6.04,5.856c0,3.192 -2.66,5.857 -6.04,5.857c-3.38,0 -6.04,-2.665 -6.04,-5.857c0,-3.191 2.66,-5.856 6.04,-5.856z" fill="#7166F9" stroke="white" stroke-width="4"/><g id="Group 17" data-node-id="1:581">
<rect id="Rectangle 23_2" data-node-id="1:582" x="247.33640000000003" y="0.5" width="84.4098" height="44.1925" rx="16" fill="#373434"/>
<path id="Polygon 3" data-node-id="1:583" d="M288.6564,49.057c0.41,0.41 1.07,0.394 1.46,-0.036l4.02,-4.5c0.58,-0.646 0.12,-1.67 -0.75,-1.666l-8.43,0.029c-0.89,0.004 -1.34,1.073 -0.71,1.703z" fill="#373434"/>
</g></g></g></g></g><defs><linearGradient id="paint1_linear_1_3" x1="0.7993999999999915" y1="8.826000000000022" x2="357.53640000000007" y2="8.826000000000022" gradientUnits="userSpaceOnUse">
<stop stop-color="#8E7CFD"/>
<stop offset="1" stop-color="#B866F9"/>
</linearGradient></defs></svg>